<?xml version="1.0" encoding="UTF-8" standalone="no"?>
<svg
   xmlns:dc="http://purl.org/dc/elements/1.1/"
   xmlns:cc="http://creativecommons.org/ns#"
   xmlns:rdf="http://www.w3.org/1999/02/22-rdf-syntax-ns#"
   xmlns:svg="http://www.w3.org/2000/svg"
   xmlns="http://www.w3.org/2000/svg"
   xmlns:sodipodi="http://sodipodi.sourceforge.net/DTD/sodipodi-0.dtd"
   xmlns:inkscape="http://www.inkscape.org/namespaces/inkscape"
   width="210mm"
   height="297mm"
   viewBox="0 0 210 297"
   version="1.1"
   id="svg8"
   inkscape:version="1.0 (4035a4fb49, 2020-05-01)"
   sodipodi:docname="drawing v2.svg">
  <defs
     id="defs2" />
  <sodipodi:namedview
     id="base"
     pagecolor="#ffffff"
     bordercolor="#666666"
     borderopacity="1.0"
     inkscape:pageopacity="0.0"
     inkscape:pageshadow="2"
     inkscape:zoom="1.0135443"
     inkscape:cx="3.143044"
     inkscape:cy="695.8273"
     inkscape:document-units="mm"
     inkscape:current-layer="g1012"
     inkscape:document-rotation="0"
     showgrid="false"
     inkscape:window-width="2400"
     inkscape:window-height="1271"
     inkscape:window-x="2391"
     inkscape:window-y="-9"
     inkscape:window-maximized="1" />
  <metadata
     id="metadata5">
    <rdf:RDF>
      <cc:Work
         rdf:about="">
        <dc:format>image/svg+xml</dc:format>
        <dc:type
           rdf:resource="http://purl.org/dc/dcmitype/StillImage" />
        <dc:title></dc:title>
      </cc:Work>
    </rdf:RDF>
  </metadata>
  <g
     inkscape:label="Layer 1"
     inkscape:groupmode="layer"
     id="layer1">
    <rect
       style="opacity:0.997;fill:#ffffff;stroke:none;stroke-width:1.88228;stroke-linecap:round;stroke-miterlimit:4;stroke-dasharray:none;stroke-opacity:0.98;paint-order:stroke fill markers;fill-opacity:1"
       id="rect1002"
       width="124.41978"
       height="54.422611"
       x="39.087894"
       y="130.48042"
       inkscape:export-xdpi="104.52357"
       inkscape:export-ydpi="104.52357" />
    <g
       transform="translate(-7.7935374,67.718763)"
       id="g1012"
       inkscape:export-xdpi="104.52357"
       inkscape:export-ydpi="104.52357">
      <path
         id="rect833"
         style="opacity:0.997;fill:#000000;stroke:#000000;stroke-width:0.81851;stroke-linecap:round;stroke-miterlimit:4;stroke-dasharray:none;stroke-opacity:0.98;paint-order:stroke fill markers"
         d="m 103.2755,67.620162 -47.599809,6.842993 v 31.169675 l 47.603279,7.15512 V 67.620162 Z" />
      <path
         style="fill:#ffffff;stroke:#000000;stroke-width:0.264583px;stroke-linecap:butt;stroke-linejoin:miter;stroke-opacity:1"
         d="m 57.55016,75.959207 v 13.980551 l 8.73529,15.129972 9.45677,-14.799798 -0.0048,-16.422933 -5.806278,0.772624 v 13.273046 l -3.301754,5.414875 -3.037613,-5.216768 V 75.279974 Z"
         id="path862"
         sodipodi:nodetypes="ccccccccccc" />
      <path
         style="fill:#ffffff;stroke:#000000;stroke-width:0.264583px;stroke-linecap:butt;stroke-linejoin:miter;stroke-opacity:1"
         d="m 77.24858,73.656017 15.33258,-1.743832 c 3.441114,-0.317699 5.797363,0.783272 6.00919,4.688488 v 9.509051 l -8.782664,8.254384 8.650595,8.650592 0.122351,6.20709 -3.159964,-0.52807 L 82.907023,96.741369 82.825393,92.929918 92.97737,83.006074 V 79.704323 C 92.788035,78.254883 91.953171,77.370282 90.005792,77.45913 L 77.32706,78.647763 Z"
         id="path879"
         sodipodi:nodetypes="ccccccccccccccc" />
      <path
         id="path932"
         style="fill:#000000;stroke:#000000;stroke-width:0.999999px;stroke-linecap:butt;stroke-linejoin:miter;stroke-opacity:1"
         d="m 488.60198,330.72674 -15.98675,21.52912 v 54.35547 l 19.06055,-1.76563 v -27.57617 l 13.0586,-1.05273 v 27.39346 l 18.00195,-1.81555 V 351.19727 L 509.0331,330.99504 Z m 9.95507,16.23364 6.17733,8.82478 v 8.93554 l -13.0586,0.46094 v -8.69141 z"
         transform="scale(0.26458333)"
         sodipodi:nodetypes="ccccccccccccccccc" />
      <path
         id="path932-7"
         style="fill:#000000;stroke:#000000;stroke-width:0.264583px;stroke-linecap:butt;stroke-linejoin:miter;stroke-opacity:1"
         d="m 147.88942,93.132274 -1.4893,1.61752 -2.36418,0.0079 -0.13345,-3.454661 2.29958,-0.0077 z m -7.87794,-5.534628 V 106.1351 l 4.46493,-0.46294 -0.01,-6.063551 2.90681,2.255721 0.0566,3.48729 3.76452,-0.40721 -0.0132,-5.091863 -3.12492,-2.424442 3.1148,-1.822464 v -5.460146 l -3.57208,-2.5245 z" />
      <path
         id="path980"
         style="fill:#000000;stroke:#000000;stroke-width:0.264583px;stroke-linecap:butt;stroke-linejoin:miter;stroke-opacity:1"
         d="m 114.86685,86.66377 v -8.965219 l 6.72391,0.373552 v 8.778441 z M 108.36354,71.383905 V 109.4201 l 6.47144,-0.66035 V 92.647195 l 8.58456,-0.330176 4.29227,-6.009191 v -7.792137 l -4.42434,-5.745049 z" />
      <path
         id="path939-2"
         style="fill:#000000;stroke:#000000;stroke-width:0.948083px;stroke-linecap:butt;stroke-linejoin:miter;stroke-opacity:1"
         d="m 576.19531,331.5332 v 66.42578 l 16,-1.6582 -0.0332,-21.72851 10.41601,8.08398 0.20313,12.49609 13.48828,-1.45898 -0.0469,-18.24609 -11.19727,-8.6875 11.16016,-6.53125 v -19.93946 l 0.0547,-8.54687 -13.09179,-0.0684 v 21.11328 l -11.01758,6.36133 v -27.53125 z"
         transform="scale(0.26458333)" />
      <path
         d="m 103.28367,67.620162 64.32325,6.842993 v 31.169675 l -64.32795,7.15511 V 67.620162 Z"
         style="opacity:0.997;fill:none;stroke:#000000;stroke-width:0.951496;stroke-linecap:round;stroke-miterlimit:4;stroke-dasharray:none;stroke-opacity:0.98;paint-order:stroke fill markers"
         id="rect833-9" />
    </g>
  </g>
</svg>
